<svg width="512" height="512" viewBox="0 0 512 512" fill="none" xmlns="http://www.w3.org/2000/svg">
<g clip-path="url(#clip0)">
<path d="M448 64H426.668V21.332C426.668 9.55859 417.109 0 405.332 0H384C372.223 0 362.668 9.55859 362.668 21.332V64H149.332V21.332C149.332 9.55859 139.777 0 128 0H106.668C94.8906 0 85.332 9.55859 85.332 21.332V64H64C28.7148 64 0 92.7148 0 128V448C0 483.285 28.7148 512 64 512H448C483.285 512 512 483.285 512 448V128C512 92.7148 483.285 64 448 64ZM469.332 448C469.332 459.754 459.754 469.332 448 469.332H64C52.2461 469.332 42.668 459.754 42.668 448V214.188H469.332V448Z" fill="#353535"/>
</g>
<defs>
<clipPath id="clip0">
<rect width="512" height="512" fill="white"/>
</clipPath>
</defs>
</svg>
