<svg width="512" height="512" viewBox="0 0 512 512" fill="none" xmlns="http://www.w3.org/2000/svg">
<g clip-path="url(#clip0)">
<path d="M486.247 211.157C484.82 209.416 482.687 208.407 480.436 208.407H324.011L309.049 122.37L357.015 74.404C369.717 61.701 373.337 43.502 366.462 26.905C359.587 10.31 344.158 0 326.194 0H185.802C167.839 0 152.41 10.31 145.535 26.906C138.661 43.502 142.281 61.703 154.983 74.405L202.949 122.371L187.986 208.408H31.559C26.892 208.408 23.275 212.816 24.191 217.397L70.487 448.878H63.623C59.473 448.878 56.108 452.243 56.108 456.393V504.487C56.108 508.637 59.473 512.002 63.623 512.002H127.748C128.915 512.002 130.066 511.73 131.109 511.208L159.811 496.857L188.513 511.208C189.557 511.73 190.706 512.002 191.874 512.002H320.124C321.29 512.002 322.442 511.73 323.485 511.208L352.187 496.857L380.889 511.208C381.933 511.73 383.083 512.002 384.25 512.002H448.375C452.526 512.002 455.89 508.637 455.89 504.487V456.393C455.89 452.243 452.526 448.878 448.375 448.878H441.511L487.807 217.397C488.246 215.188 487.675 212.899 486.247 211.157ZM40.726 223.436H185.372L146.165 448.876H85.814L40.726 223.436ZM440.859 496.971H386.023L355.547 481.733C353.432 480.675 350.94 480.675 348.825 481.733L318.35 496.971H193.646L163.17 481.733C161.055 480.676 158.565 480.675 156.449 481.733L125.972 496.971H71.137V463.906H440.859V496.971ZM237.751 101.91L182.614 46.773C179.789 43.947 181.83 39.076 185.802 39.076H326.194C330.165 39.076 332.209 43.947 329.382 46.773L274.245 101.91C269.756 106.4 267.724 112.816 268.812 119.074L284.346 208.407H227.646L243.182 119.074C244.273 112.817 242.241 106.402 237.751 101.91ZM286.963 223.436L326.171 448.876H185.828L225.036 223.436H286.963V223.436ZM426.182 448.877H365.831L340.883 305.429C340.173 301.34 336.281 298.601 332.192 299.313C328.103 300.024 325.366 303.915 326.076 308.004L350.576 448.877H341.424L283.62 116.499C283.368 115.055 283.837 113.574 284.873 112.537L340.01 57.4C346.815 50.594 346.661 41.939 344.246 36.108C341.829 30.277 335.82 24.046 326.194 24.046H185.802C176.179 24.046 170.167 30.276 167.751 36.108C165.336 41.938 165.181 50.594 171.987 57.4L227.124 112.537C228.161 113.574 228.629 115.055 228.378 116.499L170.573 448.877H161.42L218.424 121.103C218.843 118.693 218.063 116.23 216.334 114.502L165.61 63.778C157.288 55.456 154.916 43.53 159.42 32.657C163.924 21.784 174.034 15.03 185.801 15.03H326.193C337.962 15.03 348.072 21.785 352.576 32.658C357.079 43.531 354.707 55.456 346.385 63.778L295.661 114.502C293.932 116.231 293.152 118.694 293.572 121.103L320.051 273.352C320.761 277.441 324.658 280.18 328.742 279.468C332.831 278.757 335.568 274.866 334.858 270.777L326.625 223.437H471.27L426.182 448.877Z" fill="#A6A6A6"/>
</g>
<defs>
<clipPath id="clip0">
<rect width="512" height="512" fill="white"/>
</clipPath>
</defs>
</svg>
