<svg width="510" height="510" viewBox="0 0 510 510" fill="none" xmlns="http://www.w3.org/2000/svg">
<g clip-path="url(#clip0)">
<path d="M452.728 314.326L415.009 276.606L245.278 106.884C213.997 75.8367 163.503 75.9304 132.339 107.094C101.175 138.258 101.081 188.752 132.128 220.033L301.851 389.807C308.793 396.753 320.053 396.753 326.999 389.807C333.94 382.861 333.94 371.605 326.999 364.66L157.276 194.886C139.917 177.528 139.917 149.389 157.276 132.031C174.634 114.673 202.772 114.673 220.131 132.031L389.904 301.754L427.624 339.469C458.873 370.731 458.862 421.404 427.604 452.65C396.342 483.896 345.673 483.888 314.423 452.627L282.997 421.19L106.985 245.177L94.409 232.605C50.4547 187.277 51.013 115.063 95.6584 70.4136C140.308 25.7682 212.521 25.2099 257.85 69.1643L446.434 257.753C450.928 262.243 457.476 263.996 463.609 262.352C469.747 260.708 474.541 255.918 476.185 249.78C477.829 243.643 476.072 237.099 471.582 232.605L282.997 44.0207C223.937 -14.7699 128.435 -14.6606 69.5114 44.2667C10.5842 103.19 10.4748 198.693 69.2655 257.753L257.85 446.337L289.322 477.774C334.71 521.37 406.638 520.643 451.131 476.135C495.628 431.63 496.335 359.701 452.728 314.326V314.326Z" fill="white"/>
</g>
<defs>
<clipPath id="clip0">
<rect width="510" height="510" fill="white"/>
</clipPath>
</defs>
</svg>
