<svg width="100" height="100" viewBox="0 0 100 100" fill="none" xmlns="http://www.w3.org/2000/svg">
<path d="M90.5482 4.65C90.1682 4.236 89.6342 4 89.0722 4H10.9282C10.3662 4 9.83222 4.236 9.45222 4.65C9.07222 5.064 8.88622 5.62 8.93622 6.178L15.9762 85.032C16.0502 85.856 16.6242 86.55 17.4202 86.778L49.4402 95.924C49.6182 95.974 49.8042 96 49.9882 96C50.1722 96 50.3582 95.974 50.5362 95.924L82.5842 86.778C83.3802 86.55 83.9542 85.856 84.0282 85.032L91.0642 6.178C91.1142 5.62 90.9262 5.064 90.5482 4.65ZM24.0002 58.008L38.0002 61.892V22H46.0002V74L24.0002 67.898V58.008ZM76.1082 44L74.0002 68.5L54.0002 74V64.798L67.5002 61.088L68.0002 53.588L54.0002 56V22H78.0002L77.3102 30H62.0002V46L76.1082 44Z" fill="white"/>
</svg>
