<svg width="512" height="512" viewBox="0 0 512 512" fill="none" xmlns="http://www.w3.org/2000/svg">
<g clip-path="url(#clip0)">
<path d="M99.2809 362.953C94.9869 360.806 90.3099 362.596 86.3999 367.247L62.7839 399.45L39.1679 367.247C36.0939 362.847 30.4649 361.967 26.2859 362.953C21.6139 364.056 19.8459 369.393 19.8459 373.688V459.562C19.8459 466.002 24.1399 470.297 30.5809 470.297C37.0219 470.297 41.3159 466.003 41.3159 459.562V405.89L54.1959 423.065C58.4899 429.505 67.0779 429.505 71.3709 423.065L84.2519 405.89V459.562C84.2509 466.003 88.5449 470.297 94.9859 470.297C101.426 470.297 105.721 466.003 105.721 459.562V373.688C105.72 369.393 103.574 365.1 99.2809 362.953Z" fill="white"/>
<path d="M258.148 382.274C271.029 382.274 277.28 389.404 279.616 393.009C284.973 401.276 288.443 402.915 294.156 400.773C301.2 398.131 301.578 394.735 301.085 390.863C298.939 373.688 281.763 360.808 258.148 360.808C234.532 360.808 215.211 375.837 215.211 393.011C215.211 410.185 228.142 420.382 253.904 424.675L258.148 425.213C275.323 427.359 279.566 431.342 279.503 436.751C279.423 443.539 268.881 448.828 256.001 448.828C243.119 448.828 236.922 441.908 234.533 438.093C230.6 431.815 228.093 427.358 223.799 427.358C217.359 427.358 211.89 432.975 213.064 438.093C216.669 454.487 232.386 468.148 256.001 468.148C279.617 468.148 298.938 453.119 298.938 435.945C298.938 418.77 286.333 408.336 260.569 404.043L258.148 403.743C238.826 401.597 236.669 395.741 236.68 393.008C236.697 388.715 245.267 382.274 258.148 382.274V382.274Z" fill="white"/>
<path d="M481.419 448.827H449.216V373.687C449.216 367.247 444.922 362.952 438.481 362.952C432.041 362.952 427.746 367.246 427.746 373.687V459.561C427.746 466.001 432.04 470.296 438.481 470.296H481.418C487.858 470.296 492.153 466.002 492.153 459.561C492.153 453.12 487.86 448.827 481.419 448.827V448.827Z" fill="white"/>
<path d="M404.134 450.973C406.28 446.679 406.415 442.386 406.415 438.092L406.28 395.156H406.279C406.279 377.981 391.25 362.953 374.076 362.953H352.608C335.433 362.953 320.405 377.982 320.405 395.156V438.093C320.405 455.268 335.434 470.296 352.608 470.296H374.076C378.37 470.296 382.663 468.149 386.958 466.002C389.104 468.149 391.755 470.296 396.048 470.296C398.195 470.296 401.985 468.148 404.133 466.002C408.428 461.706 408.428 455.267 404.134 450.973V450.973ZM384.81 433.799V433.798L382.664 431.652C378.37 427.358 371.929 427.358 367.635 431.652C363.341 435.946 363.341 442.387 367.635 446.681L369.781 448.828H352.606C346.166 448.828 341.871 444.534 341.871 438.093V395.156C341.871 388.716 346.165 384.421 352.606 384.421H374.074C380.514 384.421 384.809 388.715 384.809 395.156V433.798L384.81 433.799Z" fill="white"/>
<path d="M185.154 405.891C181.259 403.084 173.27 404.862 170.125 410.185L157.243 433.801L144.361 410.185C142.215 405.891 135.605 403.294 129.332 405.891C124.896 407.728 122.259 414.611 125.038 420.92L144.36 459.563L125.038 498.206C122.67 502.76 125.902 508.832 132.387 510.842C136.853 512.226 142.34 513.683 146.51 506.793L189.447 420.919C191.594 416.625 190.081 409.442 185.154 405.891V405.891Z" fill="white"/>
<path d="M406.781 125.457C402.734 122.541 396.402 122.678 394.172 124.909C360.715 144.983 311.643 156.136 255.88 156.136C200.117 156.136 148.816 144.984 117.588 124.909C111.085 120.426 105.929 122.943 103.369 124.787C99.3219 127.703 96.6599 130.154 98.6719 138.121C109.612 181.427 184.501 200.746 258.107 200.746C331.713 200.746 407.787 181.644 412.651 140.216C413.388 133.952 409.34 127.301 406.781 125.457V125.457Z" fill="white"/>
<path d="M406.781 192.545C402.734 189.629 396.402 189.766 394.172 191.997C360.715 212.071 311.643 223.224 255.88 223.224C200.117 223.224 148.816 212.072 117.588 191.997C111.085 187.514 105.929 190.031 103.369 191.875C99.3219 194.791 96.6599 197.242 98.6719 205.209C109.612 248.515 184.501 267.834 258.107 267.834C331.713 267.834 407.787 248.733 412.651 207.305C413.388 201.041 409.34 194.39 406.781 192.545V192.545Z" fill="white"/>
<path d="M406.781 260.306C402.734 257.39 396.402 257.527 394.172 259.758C360.715 279.832 311.643 290.985 255.88 290.985C200.117 290.985 148.816 279.833 117.588 259.758C111.085 255.275 105.929 257.792 103.369 259.636C99.3219 262.552 96.6599 265.003 98.6719 272.97C109.612 316.276 184.501 335.595 258.107 335.595C331.713 335.595 407.787 316.493 412.651 275.065C413.388 268.802 409.34 262.15 406.781 260.306V260.306Z" fill="white"/>
<path d="M255.664 0C179.827 0 99.5291 24.536 99.5291 66.915C99.5291 109.295 179.827 133.829 255.664 133.829C331.501 133.829 411.798 109.293 411.798 66.914C411.798 24.534 331.5 0 255.664 0V0Z" fill="white"/>
</g>
<defs>
<clipPath id="clip0">
<rect width="512.001" height="512.001" fill="white"/>
</clipPath>
</defs>
</svg>
