<?xml version="1.0" encoding="iso-8859-1"?>
<!-- Generator: Adobe Illustrator 16.0.0, SVG Export Plug-In . SVG Version: 6.00 Build 0)  -->
<!DOCTYPE svg PUBLIC "-//W3C//DTD SVG 1.1//EN" "http://www.w3.org/Graphics/SVG/1.1/DTD/svg11.dtd">
<svg version="1.1" id="Capa_1" xmlns="http://www.w3.org/2000/svg" xmlns:xlink="http://www.w3.org/1999/xlink" x="0px" y="0px"
	 width="45.044px" height="45.044px" viewBox="0 0 45.044 45.044" style="enable-background:new 0 0 45.044 45.044;"
	 xml:space="preserve">
<g>
	<path d="M36.54,26.777c0,1.228-0.996,2.224-2.224,2.224h-7.6l-3.107,15.153c-0.104,0.519-0.561,0.89-1.087,0.89
		s-0.982-0.371-1.088-0.89l-3.107-15.153h-7.6c-1.227,0-2.223-0.996-2.223-2.224c0-3.379,1.955-6.405,5.021-8.425v-6.631h-2.066
		c-1.227,0-2.222-0.995-2.222-2.223V2.224C9.237,0.996,10.232,0,11.459,0h4.289h13.549h4.287c1.229,0,2.223,0.996,2.223,2.224v7.274
		c0,1.228-0.994,2.223-2.223,2.223H31.52v6.631C34.585,20.372,36.54,23.398,36.54,26.777z"/>
</g>
<g>
</g>
<g>
</g>
<g>
</g>
<g>
</g>
<g>
</g>
<g>
</g>
<g>
</g>
<g>
</g>
<g>
</g>
<g>
</g>
<g>
</g>
<g>
</g>
<g>
</g>
<g>
</g>
<g>
</g>
</svg>
