<svg width="29" height="46" viewBox="0 0 29 46" fill="none" xmlns="http://www.w3.org/2000/svg">
<path d="M28.036 26.777C28.036 28.005 27.04 29.001 25.812 29.001H18.212L15.105 44.154C15.001 44.673 14.544 45.044 14.018 45.044C13.492 45.044 13.036 44.673 12.93 44.154L9.823 29.001H2.223C0.996001 29.001 0 28.005 0 26.777C0 23.398 1.955 20.372 5.021 18.352V11.721H2.955C1.728 11.721 0.733001 10.726 0.733001 9.498V2.224C0.733001 0.996 1.728 0 2.955 0H7.244H20.793H25.08C26.309 0 27.303 0.996 27.303 2.224V9.498C27.303 10.726 26.309 11.721 25.08 11.721H23.016V18.352C26.081 20.372 28.036 23.398 28.036 26.777Z" fill="#353535"/>
</svg>
