<svg width="511" height="511" viewBox="0 0 511 511" fill="none" xmlns="http://www.w3.org/2000/svg">
<g clip-path="url(#clip0)">
<path d="M500.947 237.645L418.884 196.616L500.947 155.583C515.625 148.246 515.641 127.224 500.947 119.875L265.406 2.10526C259.785 -0.701755 253.173 -0.701755 247.551 2.10526L12.0106 119.875C-2.66777 127.216 -2.68337 148.238 12.0106 155.583L94.073 196.616L12.0106 237.645C-2.66777 244.987 -2.68337 266.004 12.0106 273.353L94.073 314.386L12.0106 355.415C-2.66777 362.757 -2.68337 383.774 12.0106 391.123L247.551 508.893C253.161 511.696 259.773 511.708 265.406 508.893L500.947 391.123C515.625 383.782 515.641 362.764 500.947 355.415L418.884 314.386L500.947 273.353C515.625 266.016 515.641 244.994 500.947 237.645V237.645ZM256.479 42.2768L447.383 137.731L256.479 233.181L65.574 137.731L256.479 42.2768ZM447.383 373.271L256.479 468.722L65.574 373.271L138.709 336.702L247.551 391.123C253.165 393.926 259.773 393.938 265.406 391.123L374.249 336.702L447.383 373.271ZM256.479 350.951L65.574 255.501L138.709 218.932L247.551 273.353C253.165 276.156 259.773 276.168 265.406 273.353L374.249 218.932L447.383 255.501L256.479 350.951Z" fill="#A6A6A6"/>
</g>
<defs>
<clipPath id="clip0">
<rect width="511" height="511" fill="white"/>
</clipPath>
</defs>
</svg>
