<svg width="497" height="437" viewBox="0 0 497 437" fill="none" xmlns="http://www.w3.org/2000/svg">
<path d="M401.001 332.183C399.799 324.127 398.211 315.83 396.247 307.346C394.512 299.896 392.496 292.299 390.208 284.588C384.189 264.338 376.259 243.294 366.646 222.02C362.435 212.72 357.9 203.379 353.062 194.048C348.799 185.825 344.306 177.591 339.572 169.409C334.849 161.217 329.98 153.213 324.975 145.408C319.322 136.558 313.502 127.969 307.546 119.672C293.941 100.707 279.679 83.3101 265.144 67.9701C259.617 62.1291 254.047 56.5911 248.457 51.3771C242.094 45.4211 235.699 39.8941 229.314 34.8261C187.633 1.73414 150.32 -8.20286 124.229 6.85414C98.138 21.9211 88.086 59.2031 95.902 111.856C97.093 119.912 98.692 128.209 100.667 136.693C102.381 144.143 104.397 151.74 106.696 159.451C112.715 179.701 120.645 200.756 130.269 222.019C134.47 231.319 139.004 240.649 143.842 249.98C148.105 258.214 152.609 266.437 157.332 274.629C162.055 282.821 166.924 290.825 171.929 298.63C177.592 307.491 183.412 316.08 189.358 324.376C202.963 343.341 217.225 360.728 231.76 376.067C237.288 381.908 242.867 387.456 248.457 392.67C254.82 398.626 261.215 404.143 267.589 409.211C282.918 421.384 297.651 430.422 311.454 436.222C344.18 427.946 374.399 413.36 400.74 393.841C404.417 376.894 404.553 356.132 401.001 332.183ZM377.532 390.039C374.491 403.184 368.901 412.191 360.908 416.799C352.925 421.417 342.33 421.752 329.425 417.823C315.444 413.549 299.123 404.208 282.217 390.781C276.533 386.267 270.838 381.356 265.143 376.079C259.563 370.896 253.983 365.358 248.446 359.496C238.937 349.434 229.533 338.42 220.359 326.603C214.236 318.714 208.207 310.47 202.324 301.912C193.787 289.509 185.543 276.448 177.706 262.864C169.859 249.28 162.67 235.613 156.202 222.019C151.73 212.646 147.602 203.305 143.841 194.058C138.188 180.203 133.35 166.546 129.39 153.286C127.091 145.554 125.075 137.968 123.392 130.539C121.657 122.974 120.247 115.576 119.181 108.398C116.005 87.0511 116.078 68.2431 119.369 54.0011C122.41 40.8561 128.01 31.8491 135.993 27.2411C140.308 24.7541 145.376 23.5001 151.154 23.5001C156.086 23.5001 161.54 24.4091 167.475 26.2271C181.456 30.4901 197.777 39.8421 214.683 53.2591C220.367 57.7731 226.072 62.6841 231.757 67.9821C237.347 73.1541 242.917 78.6921 248.444 84.5441C257.963 94.6061 267.367 105.62 276.552 117.448C282.675 125.337 288.704 133.581 294.587 142.139C303.113 154.542 311.358 167.603 319.194 181.176C327.041 194.76 334.23 208.427 340.698 222.021C345.17 231.404 349.298 240.746 353.059 249.993C358.712 263.848 363.55 277.495 367.51 290.754C369.809 298.486 371.825 306.072 373.518 313.501C375.242 321.066 376.653 328.464 377.719 335.642C380.897 356.989 380.824 375.797 377.532 390.039Z" fill="#F2F2F2"/>
<path d="M420.133 145C412.557 142.012 404.574 139.243 396.236 136.693C388.922 134.467 381.336 132.409 373.509 130.539C352.966 125.628 330.773 121.971 307.545 119.672C297.399 118.658 287.044 117.917 276.553 117.446C267.295 117.018 257.912 116.798 248.456 116.798C239 116.798 229.616 117.017 220.348 117.446C209.847 117.916 199.492 118.669 189.346 119.672C166.118 121.971 143.935 125.628 123.392 130.539C115.566 132.409 107.98 134.468 100.665 136.693C92.327 139.232 84.344 142.012 76.768 145C27.272 164.539 0 191.895 0 222.019C0 252.143 27.272 279.499 76.769 299.049C84.345 302.037 92.317 304.806 100.655 307.356C107.969 309.582 115.555 311.64 123.382 313.5C143.925 318.421 166.118 322.068 189.357 324.377C199.503 325.38 209.858 326.122 220.359 326.603C229.617 327.031 239 327.24 248.456 327.24C257.912 327.24 267.285 327.031 276.543 326.603C287.044 326.122 297.389 325.38 307.545 324.377C330.773 322.078 352.977 318.421 373.52 313.5C381.346 311.63 388.932 309.582 396.247 307.346C404.575 304.807 412.558 302.038 420.133 299.049C469.64 279.499 496.902 252.144 496.902 222.019C496.901 191.895 469.64 164.539 420.133 145ZM458.501 249.792C447.822 259.771 431.564 269.227 411.491 277.158C404.731 279.822 397.625 282.309 390.206 284.587C382.923 286.834 375.348 288.892 367.511 290.752C354.042 293.96 339.8 296.593 324.973 298.631C315.088 300 304.942 301.097 294.587 301.902C279.572 303.104 264.139 303.71 248.455 303.71C232.771 303.71 217.338 303.104 202.323 301.913C191.968 301.098 181.812 300.001 171.927 298.632C157.1 296.594 142.858 293.961 129.389 290.753C121.552 288.893 113.977 286.835 106.694 284.588C99.275 282.31 92.17 279.823 85.409 277.159C65.337 269.228 49.078 259.772 38.399 249.793C28.535 240.587 23.53 231.246 23.53 222.02C23.53 212.794 28.535 203.452 38.399 194.247C49.078 184.268 65.336 174.812 85.409 166.881C92.169 164.217 99.275 161.73 106.694 159.452C113.977 157.205 121.552 155.147 129.389 153.287C142.858 150.079 157.1 147.446 171.927 145.408C181.812 144.039 191.968 142.942 202.323 142.127C217.338 140.936 232.771 140.33 248.455 140.33C264.139 140.33 279.572 140.936 294.587 142.138C304.942 142.943 315.088 144.04 324.973 145.409C339.8 147.447 354.042 150.08 367.511 153.288C375.348 155.148 382.923 157.206 390.206 159.453C397.625 161.731 404.73 164.218 411.491 166.882C431.563 174.813 447.822 184.269 458.501 194.248C468.365 203.454 473.37 212.795 473.37 222.021C473.37 231.246 468.365 240.587 458.501 249.792Z" fill="#F2F2F2"/>
<path d="M372.673 6.85414C346.582 -8.20286 309.269 1.73414 267.588 34.8261C261.214 39.8941 254.819 45.4211 248.456 51.3771C242.866 56.5911 237.286 62.1391 231.759 67.9801C217.224 83.3191 202.962 100.706 189.347 119.671C183.402 127.967 177.581 136.557 171.929 145.407C166.924 153.212 162.055 161.216 157.332 169.408C152.609 177.6 148.106 185.823 143.842 194.057C139.004 203.388 134.469 212.729 130.269 222.018C120.645 243.292 112.715 264.336 106.696 284.586C104.397 292.308 102.381 299.904 100.656 307.354C98.692 315.839 97.093 324.125 95.902 332.181C92.349 356.12 92.485 376.882 96.163 393.83C122.505 413.359 152.723 427.946 185.45 436.222C199.253 430.423 213.986 421.384 229.315 409.211C235.699 404.143 242.094 398.616 248.458 392.67C254.048 387.456 259.618 381.918 265.145 376.077C279.669 360.738 293.942 343.34 307.547 324.375C313.492 316.078 319.313 307.489 324.976 298.629C329.981 290.824 334.85 282.82 339.573 274.628C344.306 266.446 348.799 258.223 353.063 249.989C357.901 240.658 362.436 231.317 366.647 222.017C376.26 200.753 384.191 179.699 390.209 159.449C392.497 151.738 394.514 144.141 396.238 136.691C398.213 128.206 399.801 119.91 401.003 111.854C408.816 59.2031 398.765 21.9211 372.673 6.85414ZM367.512 153.286C363.552 166.546 358.714 180.192 353.061 194.047C349.299 203.294 345.172 212.636 340.7 222.019C334.232 235.613 327.043 249.28 319.196 262.864C311.359 276.437 303.115 289.498 294.589 301.901C288.696 310.469 282.667 318.713 276.544 326.602C267.37 338.42 257.966 349.433 248.447 359.495C242.92 365.346 237.35 370.884 231.76 376.067C226.076 381.354 220.371 386.265 214.686 390.779C197.78 404.206 181.458 413.547 167.478 417.821C154.574 421.75 143.978 421.415 135.995 416.797C128.012 412.189 122.411 403.182 119.371 390.037C116.08 375.795 116.006 356.987 119.183 335.64C120.249 328.462 121.659 321.064 123.383 313.499C125.076 306.07 127.092 298.484 129.391 290.752C133.351 277.492 138.189 263.835 143.842 249.98C147.604 240.733 151.731 231.391 156.203 222.019C162.671 208.425 169.86 194.758 177.707 181.174C185.544 167.59 193.788 154.529 202.325 142.126C208.208 133.568 214.226 125.324 220.349 117.446C229.534 105.618 238.938 94.6051 248.446 84.5421C253.984 78.6801 259.564 73.1421 265.143 67.9701C270.838 62.6831 276.532 57.7721 282.217 53.2581C299.123 39.8421 315.445 30.4901 329.425 26.2261C335.36 24.4081 340.814 23.4991 345.746 23.4991C351.524 23.4991 356.602 24.7531 360.907 27.2401C368.9 31.8481 374.491 40.8551 377.531 54.0001C380.822 68.2421 380.896 87.0501 377.719 108.397C376.653 115.575 375.243 122.973 373.508 130.538C371.827 137.967 369.81 145.553 367.512 153.286Z" fill="#F2F2F2"/>
<path d="M248.456 268.715C274.245 268.715 295.152 247.809 295.152 222.019C295.152 196.23 274.245 175.323 248.456 175.323C222.666 175.323 201.76 196.23 201.76 222.019C201.76 247.809 222.666 268.715 248.456 268.715Z" fill="#F2F2F2"/>
</svg>
