<svg width="22" height="22" viewBox="0 0 22 22" fill="none" xmlns="http://www.w3.org/2000/svg">
<path d="M15.2318 15.3038C16.043 15.2156 16.6584 14.4813 16.6304 13.6001C16.6025 12.7189 15.9031 12.0139 15.0639 12.0139H15.008C14.1407 12.0433 13.4694 12.807 13.4974 13.7175C13.5254 14.1582 13.6932 14.54 13.9449 14.8044C12.9938 16.7725 11.5392 18.2118 9.35721 19.4161C7.87457 20.2386 6.33603 20.5323 4.79749 20.3267C3.53863 20.1505 2.55954 19.563 1.94402 18.5936C1.04891 17.1543 0.965011 15.5975 1.72033 14.0407C2.25186 12.9245 3.09099 12.102 3.62253 11.6907C3.51064 11.3089 3.34276 10.6627 3.25887 10.1928C-0.797394 13.277 -0.377745 17.4481 0.853122 19.4161C1.77623 20.8849 3.65052 21.7954 5.7206 21.7954C6.28005 21.7954 6.83949 21.7366 7.39902 21.5898C10.9797 20.8555 13.6932 18.623 15.2318 15.3038V15.3038ZM20.1552 11.6614C18.0292 9.04714 14.8961 7.60785 11.3154 7.60785H10.8678C10.6161 7.07913 10.0845 6.72659 9.49709 6.72659H9.44111C8.57399 6.75598 7.90265 7.51967 7.93056 8.43033C7.95855 9.3115 8.65788 10.0165 9.49709 10.0165H9.553C10.1684 9.9871 10.7 9.57586 10.9237 9.01775H11.4273C13.5534 9.01775 15.5674 9.66395 17.3858 10.9271C18.7845 11.8964 19.7916 13.1595 20.351 14.6869C20.8266 15.9206 20.7986 17.1249 20.295 18.1531C19.5118 19.7098 18.1971 20.5617 16.4626 20.5617C15.3437 20.5617 14.2807 20.2092 13.7211 19.9448C13.4135 20.2386 12.8539 20.7085 12.4623 21.0023C13.6652 21.5898 14.8961 21.9129 16.071 21.9129C18.7565 21.9129 20.7427 20.356 21.498 18.7993C22.3092 17.0955 22.2532 14.1582 20.1552 11.6614V11.6614ZM5.94438 15.803C5.97237 16.6843 6.6717 17.3892 7.51091 17.3892H7.5669C8.43411 17.3599 9.10544 16.5961 9.07745 15.6855C9.04954 14.8043 8.35012 14.0994 7.51091 14.0994H7.45501C7.39902 14.0994 7.31504 14.0994 7.25923 14.1287C6.11226 12.1313 5.6367 9.9577 5.80458 7.60776C5.91638 5.84533 6.47592 4.31786 7.45501 3.05475C8.26623 1.96792 9.83276 1.4392 10.8958 1.40989C13.861 1.35111 15.1198 5.22843 15.2038 6.78529C15.5674 6.87338 16.1829 7.07904 16.6025 7.22592C16.2668 2.46743 13.4694 0 10.7839 0C8.26623 0 5.94438 1.90931 5.02119 4.72919C3.73442 8.48902 4.57363 12.102 6.14016 14.9513C6.00037 15.1568 5.91638 15.48 5.94438 15.8031V15.803Z" fill="white"/>
</svg>
