<svg width="512" height="512" viewBox="0 0 512 512" fill="none" xmlns="http://www.w3.org/2000/svg">
<g clip-path="url(#clip0)">
<path d="M385.271 281.217C404.456 289.717 416.852 308.767 416.852 329.747V355.112C416.852 359.254 420.21 362.612 424.352 362.612C428.493 362.612 431.851 359.254 431.851 355.112V329.747C431.851 302.838 415.953 278.406 391.264 267.467L309.929 232.614C309.931 232.409 309.947 232.202 309.947 231.998V199.625C326.697 184.726 337.277 163.032 337.277 138.906L337.302 76.2412C337.302 59.5754 332.29 43.5535 322.809 29.9066C313.547 16.5758 300.694 6.41387 285.64 0.516931C282.711 -0.629058 279.379 0.171935 277.292 2.52491L265.983 15.2818C259.371 22.5947 249.93 26.7887 240.083 26.7887H217.83C194.048 26.7887 174.699 46.1345 174.699 69.9143V110.46V110.461C174.699 110.461 174.699 110.461 174.699 110.462V138.905C174.699 163.043 185.289 184.747 202.055 199.646V231.998C202.055 232.306 202.078 232.615 202.084 232.923L121.827 267.809C96.5097 278.464 80.1499 303.095 80.1499 330.561V355.113C80.1499 359.255 83.5079 362.613 87.6498 362.613C91.7918 362.613 95.1498 359.255 95.1498 355.113V330.561C95.1498 309.147 107.905 289.943 127.726 281.601L167.588 264.274C174.169 280.208 184.876 293.98 198.909 304.428C215.509 316.787 235.245 323.32 255.989 323.32C272.388 323.32 288.573 319.098 302.792 311.11C304.794 309.985 306.784 308.771 308.706 307.5C312.161 305.215 313.11 300.562 310.825 297.107C308.54 293.652 303.887 292.703 300.432 294.988C298.811 296.06 297.134 297.084 295.445 298.032C283.464 304.762 269.82 308.32 255.988 308.32C222.872 308.32 193.666 288.477 181.338 258.297L204.542 248.212C211.478 270.274 232.12 285.938 256.001 285.938C280.051 285.938 300.737 270.143 307.558 247.918L330.804 257.879C328.468 263.66 325.466 269.157 321.83 274.282C319.433 277.66 320.227 282.342 323.605 284.739C324.921 285.674 326.437 286.123 327.938 286.123C330.286 286.123 332.598 285.023 334.061 282.963C338.315 276.969 341.833 270.542 344.589 263.786L385.271 281.217ZM189.699 138.905V117.273C193.098 116.604 196.395 115.457 199.465 113.86C204.012 111.495 208.1 108.105 211.285 104.055C213.847 100.8 213.284 96.084 210.029 93.523C206.773 90.9601 202.058 91.523 199.497 94.779C197.619 97.166 195.214 99.162 192.543 100.551C191.579 101.052 190.626 101.451 189.699 101.771V69.9143C189.699 54.4054 202.319 41.7885 217.83 41.7885H240.083C254.163 41.7885 267.659 35.7936 277.159 25.2867L284.906 16.5478C307.787 27.5807 322.303 50.4834 322.303 76.2402V91.563C312.896 95.045 302.994 96.829 292.814 96.829C270.644 96.829 249.646 88.3541 233.689 72.9652C230.708 70.0903 225.96 70.1763 223.085 73.1572C220.21 76.1392 220.295 80.8861 223.276 83.7621C242.044 101.862 266.74 111.829 292.814 111.829C302.904 111.829 312.772 110.353 322.259 107.432C322.284 107.882 322.278 138.905 322.278 138.905C322.278 175.451 292.54 205.184 255.988 205.184C219.437 205.184 189.699 175.451 189.699 138.905V138.905ZM256 270.937C236.349 270.937 219.734 256.256 217.349 236.78C217.154 235.2 217.055 233.591 217.055 231.997V210.234C228.623 216.573 241.891 220.184 255.988 220.184C270.095 220.184 283.372 216.567 294.947 210.219V231.998C294.947 233.512 294.857 235.042 294.676 236.565C292.4 256.16 275.774 270.937 256 270.937Z" fill="#A6A6A6"/>
<path d="M318.107 420.613L281.514 415.296L265.149 382.142C263.429 378.658 259.948 376.494 256.062 376.494C252.176 376.494 248.695 378.659 246.976 382.142L230.612 415.297L194.018 420.614C190.173 421.173 187.038 423.816 185.838 427.512C184.638 431.207 185.621 435.187 188.403 437.898L214.882 463.704L208.631 500.144C207.975 503.973 209.519 507.77 212.662 510.054C215.805 512.337 219.893 512.634 223.333 510.826L256.062 493.62L288.793 510.826C290.288 511.612 291.906 512 293.516 512C295.608 512 297.687 511.344 299.463 510.054C302.606 507.77 304.151 503.973 303.494 500.143L297.243 463.704L323.721 437.898C326.504 435.187 327.487 431.207 326.287 427.512C325.088 423.816 321.953 421.173 318.107 420.613V420.613ZM251.699 388.781L251.704 388.792C251.702 388.788 251.7 388.784 251.699 388.781C251.698 388.781 251.698 388.781 251.699 388.781ZM284.942 454.748C282.553 457.077 281.464 460.43 282.028 463.717L287.045 492.96L260.777 479.152C257.823 477.6 254.299 477.601 251.347 479.152L225.081 492.96L230.098 463.717C230.662 460.429 229.573 457.076 227.183 454.747L205.935 434.039L235.299 429.773C238.602 429.293 241.455 427.22 242.929 424.23L256.062 397.622L269.194 424.227C270.67 427.22 273.523 429.293 276.825 429.772L306.19 434.039L284.942 454.748Z" fill="#A6A6A6"/>
<path d="M149.697 420.613L113.105 415.296L96.74 382.142C95.02 378.658 91.5391 376.494 87.6531 376.494C83.7671 376.494 80.2862 378.659 78.5672 382.142L62.2023 415.297L25.6087 420.614C21.7637 421.173 18.6288 423.816 17.4288 427.512C16.2288 431.207 17.2118 435.187 19.9938 437.898L46.4725 463.704L40.2216 500.144C39.5656 503.973 41.1096 507.77 44.2525 510.054C47.3955 512.337 51.4835 512.634 54.9234 510.826L87.6531 493.62L120.384 510.826C121.879 511.612 123.497 512 125.107 512C127.199 512 129.278 511.344 131.054 510.054C134.197 507.77 135.742 503.973 135.085 500.143L128.834 463.704L155.311 437.898C158.094 435.187 159.077 431.207 157.877 427.512C156.678 423.816 153.543 421.173 149.697 420.613ZM83.2891 388.781L83.2941 388.792C83.2931 388.788 83.2911 388.784 83.2891 388.781ZM116.533 454.748C114.144 457.077 113.055 460.43 113.619 463.717L118.636 492.96L92.368 479.152C89.4151 477.601 85.8911 477.601 82.9381 479.152L56.6714 492.96L61.6883 463.717C62.2523 460.429 61.1634 457.076 58.7734 454.747L37.5256 434.039L66.8893 429.773C70.1923 429.293 73.0452 427.22 74.5192 424.23L87.6531 397.622L100.785 424.227C102.261 427.22 105.114 429.293 108.416 429.772L137.781 434.039L116.533 454.748Z" fill="#A6A6A6"/>
<path d="M494.572 427.511C493.372 423.815 490.237 421.172 486.391 420.613L449.799 415.296L433.434 382.142C431.714 378.658 428.233 376.494 424.347 376.494C420.461 376.494 416.98 378.659 415.261 382.142L398.896 415.297L362.302 420.614C358.457 421.173 355.322 423.816 354.123 427.512C352.923 431.207 353.906 435.187 356.687 437.898L383.166 463.704L376.915 500.144C376.259 503.973 377.803 507.77 380.946 510.054C384.089 512.337 388.177 512.634 391.617 510.826L424.347 493.62L457.077 510.826C458.572 511.612 460.19 512 461.8 512C463.892 512 465.971 511.344 467.747 510.054C470.89 507.77 472.435 503.973 471.778 500.143L465.527 463.704L492.005 437.898C494.788 435.186 495.772 431.207 494.572 427.511V427.511ZM419.983 388.781L419.988 388.792C419.986 388.788 419.984 388.784 419.983 388.781C419.982 388.781 419.982 388.781 419.983 388.781ZM453.226 454.748C450.837 457.077 449.748 460.43 450.312 463.717L455.329 492.96L429.061 479.152C426.108 477.601 422.584 477.601 419.631 479.152L393.364 492.96L398.381 463.717C398.945 460.429 397.856 457.076 395.466 454.747L374.218 434.039L403.582 429.773C406.885 429.293 409.738 427.22 411.212 424.23L424.346 397.622L437.478 424.227C438.954 427.22 441.807 429.293 445.109 429.772L474.473 434.039L453.226 454.748Z" fill="#A6A6A6"/>
</g>
<defs>
<clipPath id="clip0">
<rect width="512" height="512" fill="white"/>
</clipPath>
</defs>
</svg>
