<svg width="500" height="512" viewBox="0 0 500 512" fill="none" xmlns="http://www.w3.org/2000/svg">
<path d="M452.125 256L499.162 199.035L432.068 168.118L449.729 96.3866L375.865 97.6429L360.653 25.352L294.651 58.5319L249.581 0L204.511 58.5329L138.507 25.353L123.296 97.6439L49.4325 96.3866L67.0941 168.118L0 199.035L47.0354 256L0 312.965L67.0941 343.882L49.4325 415.613L123.296 414.357L138.507 486.648L204.511 453.468L249.581 512.001L294.652 453.468L360.654 486.648L375.866 414.357L449.73 415.613L432.069 343.882L499.163 312.965L452.125 256ZM451.02 301.977L396.867 326.929L411.121 384.824L351.507 383.81L339.229 442.156L285.956 415.376L249.58 462.618L213.203 415.376L159.932 442.156L147.655 383.81L88.0394 384.824L102.294 326.929L48.1421 301.977L86.1053 256L48.1421 210.023L102.294 185.071L88.0394 127.176L147.655 128.19L159.932 69.8437L213.203 96.6236L249.58 49.3823L285.956 96.6236L339.229 69.8437L351.507 128.19L411.121 127.176L396.867 185.071L451.02 210.023L413.057 256L451.02 301.977Z" fill="#A6A6A6"/>
<path d="M249.581 118.607C173.823 118.607 112.188 180.241 112.188 256C112.188 331.759 173.822 393.393 249.581 393.393C325.34 393.393 386.974 331.759 386.974 256C386.974 180.241 325.339 118.607 249.581 118.607V118.607ZM249.581 363.265C190.436 363.265 142.316 315.146 142.316 255.999C142.316 196.853 190.435 148.734 249.581 148.734C308.728 148.734 356.847 196.853 356.847 255.999C356.847 315.146 308.727 363.265 249.581 363.265V363.265Z" fill="#A6A6A6"/>
</svg>
